<mxfile host="app.diagrams.net" modified="2024-03-05T03:15:37.877Z" agent="Mozilla/5.0 (Windows NT 10.0; Win64; x64; rv:123.0) Gecko/20100101 Firefox/123.0" etag="Z_lXaT7WZQdXpDURIHeE" version="24.0.1" type="github">
  <diagram id="C5RBs43oDa-KdzZeNtuy" name="Page-1">
    <mxGraphModel dx="2173" dy="854" grid="1" gridSize="10" guides="1" tooltips="1" connect="1" arrows="1" fold="1" page="1" pageScale="1" pageWidth="827" pageHeight="1169" math="0" shadow="0">
      <root>
        <mxCell id="WIyWlLk6GJQsqaUBKTNV-0" />
        <mxCell id="WIyWlLk6GJQsqaUBKTNV-1" parent="WIyWlLk6GJQsqaUBKTNV-0" />
        <mxCell id="WIyWlLk6GJQsqaUBKTNV-2" value="" style="rounded=0;html=1;jettySize=auto;orthogonalLoop=1;fontSize=11;endArrow=block;endFill=0;endSize=8;strokeWidth=1;shadow=0;labelBackgroundColor=none;edgeStyle=orthogonalEdgeStyle;" parent="WIyWlLk6GJQsqaUBKTNV-1" source="WIyWlLk6GJQsqaUBKTNV-3" target="WIyWlLk6GJQsqaUBKTNV-6" edge="1">
          <mxGeometry relative="1" as="geometry" />
        </mxCell>
        <mxCell id="WIyWlLk6GJQsqaUBKTNV-3" value="&lt;div&gt;_filter_coord(coord)&lt;/div&gt;" style="rounded=1;whiteSpace=wrap;html=1;fontSize=12;glass=0;strokeWidth=1;shadow=0;" parent="WIyWlLk6GJQsqaUBKTNV-1" vertex="1">
          <mxGeometry x="-470" y="70" width="120" height="40" as="geometry" />
        </mxCell>
        <mxCell id="WIyWlLk6GJQsqaUBKTNV-5" value="False" style="edgeStyle=orthogonalEdgeStyle;rounded=0;html=1;jettySize=auto;orthogonalLoop=1;fontSize=11;endArrow=block;endFill=0;endSize=8;strokeWidth=1;shadow=0;labelBackgroundColor=none;" parent="WIyWlLk6GJQsqaUBKTNV-1" source="WIyWlLk6GJQsqaUBKTNV-6" edge="1">
          <mxGeometry x="-0.854" y="25" relative="1" as="geometry">
            <mxPoint as="offset" />
            <mxPoint x="-420" y="680" as="targetPoint" />
            <Array as="points">
              <mxPoint x="-175" y="230" />
              <mxPoint x="-175" y="640" />
              <mxPoint x="-420" y="640" />
            </Array>
          </mxGeometry>
        </mxCell>
        <mxCell id="WIyWlLk6GJQsqaUBKTNV-6" value="&lt;div&gt;distance(p1, p2) &amp;lt; noise_filter_threshold&amp;nbsp;&lt;/div&gt;&lt;div&gt;or&amp;nbsp;&lt;/div&gt;&lt;div&gt;distance(p2, p3) &amp;lt; noise_filter_threshold&lt;br&gt;&lt;/div&gt;" style="rhombus;whiteSpace=wrap;html=1;shadow=0;fontFamily=Helvetica;fontSize=12;align=center;strokeWidth=1;spacing=6;spacingTop=-4;" parent="WIyWlLk6GJQsqaUBKTNV-1" vertex="1">
          <mxGeometry x="-625" y="170" width="430" height="120" as="geometry" />
        </mxCell>
        <mxCell id="WIyWlLk6GJQsqaUBKTNV-11" value="return result" style="rounded=1;whiteSpace=wrap;html=1;fontSize=12;glass=0;strokeWidth=1;shadow=0;" parent="WIyWlLk6GJQsqaUBKTNV-1" vertex="1">
          <mxGeometry x="-480" y="800" width="120" height="40" as="geometry" />
        </mxCell>
        <mxCell id="CWkONviF48bVn2sMeExZ-8" value="roll(_noise_buffer)" style="rounded=0;whiteSpace=wrap;html=1;" parent="WIyWlLk6GJQsqaUBKTNV-1" vertex="1">
          <mxGeometry x="-490" y="680" width="140" height="60" as="geometry" />
        </mxCell>
        <mxCell id="CWkONviF48bVn2sMeExZ-10" value="True" style="edgeStyle=orthogonalEdgeStyle;rounded=0;html=1;jettySize=auto;orthogonalLoop=1;fontSize=11;endArrow=block;endFill=0;endSize=8;strokeWidth=1;shadow=0;labelBackgroundColor=none;" parent="WIyWlLk6GJQsqaUBKTNV-1" source="WIyWlLk6GJQsqaUBKTNV-6" target="CWkONviF48bVn2sMeExZ-12" edge="1">
          <mxGeometry x="0.0698" y="-20" relative="1" as="geometry">
            <mxPoint as="offset" />
            <mxPoint x="-612.5" y="230" as="sourcePoint" />
            <mxPoint x="-637.5" y="525" as="targetPoint" />
            <Array as="points">
              <mxPoint x="-650" y="230" />
            </Array>
          </mxGeometry>
        </mxCell>
        <mxCell id="CWkONviF48bVn2sMeExZ-12" value="&lt;div&gt;_median_buffer[-1] = coord&lt;/div&gt;&lt;div&gt;&lt;br&gt;&lt;/div&gt;result = median(_median_buffer, axis=0)" style="rounded=0;whiteSpace=wrap;html=1;" parent="WIyWlLk6GJQsqaUBKTNV-1" vertex="1">
          <mxGeometry x="-750" y="340" width="250" height="100" as="geometry" />
        </mxCell>
        <mxCell id="CWkONviF48bVn2sMeExZ-16" value="roll(_median_buffer)" style="rounded=0;whiteSpace=wrap;html=1;" parent="WIyWlLk6GJQsqaUBKTNV-1" vertex="1">
          <mxGeometry x="-490" y="560" width="140" height="60" as="geometry" />
        </mxCell>
        <mxCell id="CWkONviF48bVn2sMeExZ-25" value="" style="rounded=0;html=1;jettySize=auto;orthogonalLoop=1;fontSize=11;endArrow=block;endFill=0;endSize=8;strokeWidth=1;shadow=0;labelBackgroundColor=none;edgeStyle=orthogonalEdgeStyle;entryX=0.5;entryY=0;entryDx=0;entryDy=0;" parent="WIyWlLk6GJQsqaUBKTNV-1" source="CWkONviF48bVn2sMeExZ-12" target="CWkONviF48bVn2sMeExZ-16" edge="1">
          <mxGeometry relative="1" as="geometry">
            <mxPoint x="-530" y="530" as="sourcePoint" />
            <mxPoint x="-610" y="760" as="targetPoint" />
            <Array as="points">
              <mxPoint x="-650" y="530" />
              <mxPoint x="-420" y="530" />
            </Array>
          </mxGeometry>
        </mxCell>
        <mxCell id="CWkONviF48bVn2sMeExZ-26" value="" style="rounded=0;html=1;jettySize=auto;orthogonalLoop=1;fontSize=11;endArrow=block;endFill=0;endSize=8;strokeWidth=1;shadow=0;labelBackgroundColor=none;edgeStyle=orthogonalEdgeStyle;" parent="WIyWlLk6GJQsqaUBKTNV-1" source="CWkONviF48bVn2sMeExZ-16" target="CWkONviF48bVn2sMeExZ-8" edge="1">
          <mxGeometry relative="1" as="geometry">
            <mxPoint x="-570" y="709.47" as="sourcePoint" />
            <mxPoint x="-530" y="709.47" as="targetPoint" />
          </mxGeometry>
        </mxCell>
        <mxCell id="CWkONviF48bVn2sMeExZ-27" value="" style="rounded=0;html=1;jettySize=auto;orthogonalLoop=1;fontSize=11;endArrow=block;endFill=0;endSize=8;strokeWidth=1;shadow=0;labelBackgroundColor=none;edgeStyle=orthogonalEdgeStyle;" parent="WIyWlLk6GJQsqaUBKTNV-1" source="CWkONviF48bVn2sMeExZ-8" target="WIyWlLk6GJQsqaUBKTNV-11" edge="1">
          <mxGeometry relative="1" as="geometry">
            <mxPoint x="-410" y="640" as="sourcePoint" />
            <mxPoint x="-410" y="690" as="targetPoint" />
          </mxGeometry>
        </mxCell>
      </root>
    </mxGraphModel>
  </diagram>
</mxfile>
